<?xml version="1.0" standalone="no"?>
<!DOCTYPE svg PUBLIC "-//W3C//DTD SVG 20010904//EN"
 "http://www.w3.org/TR/2001/REC-SVG-20010904/DTD/svg10.dtd">
<svg version="1.0" xmlns="http://www.w3.org/2000/svg"
 width="96.000000pt" height="96.000000pt" viewBox="0 0 96.000000 96.000000"
 preserveAspectRatio="xMidYMid meet">
<metadata>
Created by potrace 1.11, written by Peter Selinger 2001-2013
</metadata>
<g transform="translate(0.000000,96.000000) scale(0.100000,-0.100000)"
fill="#000000" stroke="none">
<path d="M360 825 c0 -11 -12 -15 -45 -15 -33 0 -45 -4 -45 -15 0 -8 -7 -15
-15 -15 -12 0 -15 -15 -15 -75 0 -60 3 -75 15 -75 8 0 15 -7 15 -15 0 -8 7
-15 15 -15 8 0 15 -7 15 -15 0 -8 -7 -15 -15 -15 -10 0 -15 -10 -15 -30 0 -20
-5 -30 -15 -30 -12 0 -15 -13 -15 -60 0 -47 3 -60 15 -60 8 0 15 -7 15 -15 0
-8 7 -15 15 -15 10 0 15 -10 15 -30 0 -20 -5 -30 -15 -30 -11 0 -15 -12 -15
-45 0 -43 1 -45 30 -45 27 0 30 -3 30 -30 l0 -30 60 0 c47 0 60 -3 60 -15 0
-12 17 -15 90 -15 l90 0 0 30 c0 27 3 30 30 30 27 0 30 3 30 30 0 20 -5 30
-15 30 -8 0 -15 7 -15 15 0 8 7 15 15 15 10 0 15 10 15 30 0 20 5 30 15 30 13
0 15 22 15 135 0 113 -2 135 -15 135 -8 0 -15 7 -15 15 0 8 -7 15 -15 15 -10
0 -15 10 -15 30 0 20 -5 30 -15 30 -11 0 -15 12 -15 45 0 33 -4 45 -15 45 -8
0 -15 7 -15 15 0 8 -7 15 -15 15 -8 0 -15 7 -15 15 0 10 -10 15 -30 15 -20 0
-30 -5 -30 -15 0 -8 -7 -15 -15 -15 -8 0 -15 7 -15 15 0 12 -13 15 -60 15 -47
0 -60 -3 -60 -15z m-30 -150 c0 -33 -4 -45 -15 -45 -11 0 -15 12 -15 45 0 33
4 45 15 45 11 0 15 -12 15 -45z"/>
</g>
</svg>
